<?xml version="1.0" encoding="UTF-8" standalone="no"?>
<!-- Created with Inkscape (http://www.inkscape.org/) -->

<svg
   xmlns:dc="http://purl.org/dc/elements/1.1/"
   xmlns:cc="http://creativecommons.org/ns#"
   xmlns:rdf="http://www.w3.org/1999/02/22-rdf-syntax-ns#"
   xmlns:svg="http://www.w3.org/2000/svg"
   xmlns="http://www.w3.org/2000/svg"
   xmlns:xlink="http://www.w3.org/1999/xlink"
   xmlns:sodipodi="http://sodipodi.sourceforge.net/DTD/sodipodi-0.dtd"
   xmlns:inkscape="http://www.inkscape.org/namespaces/inkscape"
   id="svg2"
   version="1.1"
   inkscape:version="0.91 r13725"
   width="468.75"
   height="714.375"
   viewBox="0 0 468.75 714.375"
   sodipodi:docname="0.svg"
   inkscape:export-filename="/home/churchyard/Dokumenty/RedHat/torsava-copy/posters/0.png"
   inkscape:export-xdpi="96"
   inkscape:export-ydpi="96">
  <metadata
     id="metadata8">
    <rdf:RDF>
      <cc:Work
         rdf:about="">
        <dc:format>image/svg+xml</dc:format>
        <dc:type
           rdf:resource="http://purl.org/dc/dcmitype/StillImage" />
        <dc:title />
      </cc:Work>
    </rdf:RDF>
  </metadata>
  <defs
     id="defs6" />
  <sodipodi:namedview
     pagecolor="#ffffff"
     bordercolor="#666666"
     borderopacity="1"
     objecttolerance="10"
     gridtolerance="10"
     guidetolerance="10"
     inkscape:pageopacity="0"
     inkscape:pageshadow="2"
     inkscape:window-width="1848"
     inkscape:window-height="1056"
     id="namedview4"
     showgrid="false"
     inkscape:zoom="0.93439551"
     inkscape:cx="485.913"
     inkscape:cy="194.01433"
     inkscape:window-x="72"
     inkscape:window-y="0"
     inkscape:window-maximized="1"
     inkscape:current-layer="svg2" />
  <image
     sodipodi:absref="/home/churchyard/Dokumenty/RedHat/torsava-copy/posters/0.jpg"
     xlink:href="0.jpg"
     width="468.75"
     height="714.375"
     preserveAspectRatio="none"
     id="image10"
     x="0"
     y="0" />
  <g
     id="g4137"
     transform="matrix(1.2690792,0,0,1.2690792,-3.2303869,-167.62831)">
    <text
       transform="matrix(0.99984766,0.01745465,-0.01745465,0.99984766,0,0)"
       sodipodi:linespacing="125%"
       id="text3333"
       y="674.09985"
       x="134.81761"
       style="font-style:normal;font-weight:normal;font-size:33.92774582px;line-height:125%;font-family:sans-serif;letter-spacing:-2.26467681px;word-spacing:0px;fill:#ffffff;fill-opacity:1;stroke:none;stroke-width:1px;stroke-linecap:butt;stroke-linejoin:miter;stroke-opacity:1"
       xml:space="preserve"><tspan
         style="font-style:normal;font-variant:normal;font-weight:normal;font-stretch:normal;font-family:RichardMurray;-inkscape-font-specification:RichardMurray;letter-spacing:-2.26467681px;word-spacing:-10.33098984px;fill:#ffffff;fill-opacity:1"
         y="674.09985"
         x="134.81761"
         id="tspan3335"
         sodipodi:role="line">during the Python 3 Porting?</tspan></text>
  </g>
  <g
     id="text4148"
     style="font-style:normal;font-weight:normal;font-size:33.92774582px;line-height:125%;font-family:sans-serif;letter-spacing:-2.26467681px;word-spacing:0px;fill:#000000;fill-opacity:1;stroke:#000000;stroke-width:1.86670771;stroke-linecap:butt;stroke-linejoin:miter;stroke-opacity:1;stroke-miterlimit:4;stroke-dasharray:none"
     transform="matrix(1.2688859,0.02215133,-0.02215133,1.2688859,-7.0141528,-273.88721)">
    <path
       inkscape:connector-curvature="0"
       id="path4153"
       style="font-style:normal;font-variant:normal;font-weight:normal;font-stretch:normal;font-family:RichardMurray;-inkscape-font-specification:RichardMurray;letter-spacing:-2.26467681px;word-spacing:-10.33098984px;fill:#000000;fill-opacity:1;stroke:#000000;stroke-opacity:1;stroke-width:1.86670771;stroke-miterlimit:4;stroke-dasharray:none"
       d="m 111.3228,722.35082 q 0,-0.47499 0.6107,-1.08569 0.6107,-0.6107 1.15354,-0.6107 0.54284,0 0.54284,0.74641 l -0.13571,3.49456 q 0,2.13744 0.30535,3.29099 0.30535,1.15354 0.8482,1.15354 0.88212,0 1.76424,-2.84993 0.88212,-2.95171 0.88212,-6.98911 0,-0.40714 0.16964,-0.71249 0.16964,-0.30535 0.6107,-0.3732 0.57677,0 0.57677,0.81426 0,5.08916 -1.45889,8.82122 -1.42497,3.76598 -3.12136,3.76598 -1.11961,0 -1.93388,-2.00174 l -1.42496,1.25533 q -1.56068,1.76424 -2.51066,1.76424 -1.22139,0 -1.83209,-2.06959 -0.6107,-2.10352 -0.81427,-4.51239 -0.20357,-2.4428 -0.20357,-5.93736 0.0339,-0.27142 0.2375,-0.47499 0.20356,-0.23749 0.44106,-0.3732 0.27142,-0.16964 0.50892,-0.2375 0.27142,-0.0679 0.44106,-0.0339 0.40713,0 0.6107,0.23749 0.20356,0.20357 0.20356,0.88212 -0.23749,1.59461 -0.3732,2.95171 -0.10179,1.32319 -0.10179,2.4428 0,2.17138 0.40714,3.35885 0.40713,1.15354 1.08568,1.15354 0.91605,0 1.69639,-2.13745 0.81427,-2.17137 0.81427,-5.73378 z" />
    <path
       inkscape:connector-curvature="0"
       id="path4155"
       style="font-style:normal;font-variant:normal;font-weight:normal;font-stretch:normal;font-family:RichardMurray;-inkscape-font-specification:RichardMurray;letter-spacing:-2.26467681px;word-spacing:-10.33098984px;fill:#000000;fill-opacity:1;stroke:#000000;stroke-opacity:1;stroke-width:1.86670771;stroke-miterlimit:4;stroke-dasharray:none"
       d="m 118.57008,724.35255 0.47499,-7.26053 q 0,-1.73032 0.10178,-3.12136 0.10179,-1.39104 0.20357,-2.47672 0,-0.13571 0.13571,-0.33928 0.13571,-0.23749 0.37321,-0.40713 0.23749,-0.16964 0.50891,-0.30535 0.27142,-0.13571 0.54285,-0.13571 0.40713,0 0.64462,0.30535 0.27143,0.27142 0.27143,0.88212 l -0.10179,0.88212 -0.67855,3.83383 q -0.6107,3.25707 -0.6107,6.14093 0,0.94997 0.57677,0.94997 0.71248,0 0.91605,-0.81426 0.20356,-0.78034 0.71248,-1.15355 0.54284,-0.3732 1.11962,-0.3732 0.54284,0 0.9839,0.27142 0.37321,0.20357 0.44106,0.57677 l -0.0679,2.47673 0,0.40713 q 0,1.2214 -0.0679,1.49282 0,1.8321 0.20357,3.01957 0.23749,1.18747 1.01783,2.2053 0.16964,0.20357 -0.0339,0.40714 -0.20356,0.20356 -0.6107,0.20356 -0.47499,0 -0.94997,-0.30535 -0.44106,-0.30535 -0.78034,-1.18747 l -0.47499,-1.66246 q -0.20357,-0.81426 -0.20357,-1.62853 0,-0.84819 0.0339,-0.9839 0,-2.37495 -0.94998,-2.37495 -0.6107,0 -1.11961,1.35711 -0.47499,1.32319 -0.47499,3.76598 l 0,1.52675 0.13571,1.05176 q 0,0.30535 -0.47499,0.57677 -0.44106,0.27143 -1.01783,0.27143 -0.40713,0 -0.67856,-0.13571 -0.23749,-0.10179 -0.27142,-0.44107 l 0.16964,-7.49803 z" />
    <path
       inkscape:connector-curvature="0"
       id="path4157"
       style="font-style:normal;font-variant:normal;font-weight:normal;font-stretch:normal;font-family:RichardMurray;-inkscape-font-specification:RichardMurray;letter-spacing:-2.26467681px;word-spacing:-10.33098984px;fill:#000000;fill-opacity:1;stroke:#000000;stroke-opacity:1;stroke-width:1.86670771;stroke-miterlimit:4;stroke-dasharray:none"
       d="m 132.61246,720.89192 q 0.10178,-0.78034 0.88212,-0.78034 0.6107,0 1.18747,0.47499 0.57677,0.40714 0.57677,1.01784 0,1.32318 -0.20356,3.1892 l -0.16964,2.17138 q 0,2.57851 0.54284,3.4267 0.27142,0.2375 0.67856,0.57677 0.44106,0.30535 0.84819,0.6107 0.13571,0.50892 -0.30535,0.64463 -0.44106,0.16964 -1.28925,0.16964 l -0.47499,0 q -0.40714,0 -0.98391,-0.47499 -0.27142,-0.16964 -0.50891,-0.30535 -0.2375,-0.10178 -0.40714,-0.13571 -0.71248,0 -1.39103,0.9839 -0.6107,1.01784 -1.79817,1.01784 l -0.44106,0 q -1.69639,-0.20357 -2.6803,-2.00174 -0.91605,-1.76424 -0.91605,-4.2749 0,-3.08742 1.32319,-5.59807 1.39103,-2.51066 3.56241,-2.51066 0.81427,0 1.66246,1.66246 l 0.30535,0.13571 z m -1.35711,0.64463 q -1.39104,-0.20357 -2.54458,2.03566 -1.15355,2.17138 -1.15355,4.47847 0,1.42496 0.47499,2.34101 0.50892,0.88212 1.69639,1.08569 1.28925,0.20357 2.17138,-1.73032 0.91605,-1.9678 0.91605,-4.37667 0,-1.56068 -0.37321,-2.61244 -0.37321,-1.08569 -1.18747,-1.2214 z" />
    <path
       inkscape:connector-curvature="0"
       id="path4159"
       style="font-style:normal;font-variant:normal;font-weight:normal;font-stretch:normal;font-family:RichardMurray;-inkscape-font-specification:RichardMurray;letter-spacing:-2.26467681px;word-spacing:-10.33098984px;fill:#000000;fill-opacity:1;stroke:#000000;stroke-opacity:1;stroke-width:1.86670771;stroke-miterlimit:4;stroke-dasharray:none"
       d="m 138.55352,716.10811 q 0,-0.23749 0.20357,-0.50892 0.20357,-0.27142 0.47499,-0.47498 0.27142,-0.20357 0.57677,-0.33928 0.33928,-0.13571 0.6107,-0.13571 0.67856,0 0.67856,0.74641 0,0.20356 -0.13572,0.57677 -0.10178,0.3732 -0.27142,0.88212 -0.16964,0.47499 -0.33927,1.05176 -0.16964,0.54284 -0.27143,1.11962 -0.20356,1.11961 -0.20356,1.96781 l 0.0339,0.50891 1.62854,0.0339 q 0.94997,0 0.94997,0.33928 0,0.16964 -0.64462,0.57677 -0.27143,0.13571 -0.81427,0.3732 -0.50892,0.20357 -1.28925,0.47499 l -0.33928,2.47673 -0.16964,2.74815 q 0,0.50891 0,0.88212 0,0.33927 0.0339,0.54284 0.0339,0.20357 0.0678,0.47499 0.0679,0.27142 0.20357,0.64463 0.23749,0.71248 0.94998,0.71248 0.6107,0 1.35711,-0.64463 0.30535,-0.20356 0.81426,0.16964 0.50892,0.37321 0.50892,0.71248 -0.0679,0.0679 -0.47499,0.37321 -0.40713,0.30535 -1.35711,0.67855 -0.81427,0.2375 -1.35711,0.2375 -1.62853,0 -2.27316,-1.66246 -0.6107,-1.62853 -0.6107,-4.10526 0,-0.57677 0,-1.08569 0,-0.50891 0.0679,-1.08568 l 0.16964,-1.52675 q -0.78034,0 -0.78034,-0.44106 0,-0.27143 0.64462,-1.11962 0.67856,-0.88212 0.78034,-1.28925 l 0.57677,-4.8856 0,0 z" />
  </g>
  <g
     transform="matrix(1.2690792,0,0,1.2690792,-2.09598,-210.26606)"
     id="g4138">
    <text
       xml:space="preserve"
       style="font-style:normal;font-weight:normal;font-size:33.92774582px;line-height:125%;font-family:sans-serif;letter-spacing:-2.26467681px;word-spacing:0px;fill:#ffffff;fill-opacity:1;stroke:none;stroke-width:1px;stroke-linecap:butt;stroke-linejoin:miter;stroke-opacity:1"
       x="22.227562"
       y="681.43292"
       id="text4140"
       sodipodi:linespacing="125%"
       transform="matrix(0.99984766,0.01745465,-0.01745465,0.99984766,0,0)"><tspan
         sodipodi:role="line"
         id="tspan4142"
         x="22.227562"
         y="681.43292"
         style="font-style:normal;font-variant:normal;font-weight:normal;font-stretch:normal;font-family:RichardMurray;-inkscape-font-specification:RichardMurray;letter-spacing:-2.26467681px;word-spacing:-10.33098984px;fill:#ffffff;fill-opacity:1"
         dx="0">Daddy, what did you do</tspan></text>
    <path
       style="fill:none;fill-rule:evenodd;stroke:#ffffff;stroke-width:1.79999995;stroke-linecap:round;stroke-linejoin:miter;stroke-miterlimit:4;stroke-dasharray:none;stroke-opacity:1"
       d="m 161.94518,687.13189 c 7.66242,0.83543 14.92722,1.86968 26.48636,0.75675"
       id="path4144"
       inkscape:connector-curvature="0"
       sodipodi:nodetypes="cc" />
  </g>
</svg>
