<?xml version="1.0" encoding="UTF-8" standalone="no"?>
<!-- Created with Inkscape (http://www.inkscape.org/) -->

<svg
   xmlns:dc="http://purl.org/dc/elements/1.1/"
   xmlns:cc="http://creativecommons.org/ns#"
   xmlns:rdf="http://www.w3.org/1999/02/22-rdf-syntax-ns#"
   xmlns:svg="http://www.w3.org/2000/svg"
   xmlns="http://www.w3.org/2000/svg"
   xmlns:xlink="http://www.w3.org/1999/xlink"
   xmlns:sodipodi="http://sodipodi.sourceforge.net/DTD/sodipodi-0.dtd"
   xmlns:inkscape="http://www.inkscape.org/namespaces/inkscape"
   id="svg2"
   version="1.1"
   inkscape:version="0.91 r13725"
   width="468.75"
   height="606.5625"
   viewBox="0 0 468.75 606.5625"
   sodipodi:docname="1.svg"
   inkscape:export-filename="/home/churchyard/Dokumenty/RedHat/torsava-copy/posters/1.png"
   inkscape:export-xdpi="96"
   inkscape:export-ydpi="96">
  <metadata
     id="metadata8">
    <rdf:RDF>
      <cc:Work
         rdf:about="">
        <dc:format>image/svg+xml</dc:format>
        <dc:type
           rdf:resource="http://purl.org/dc/dcmitype/StillImage" />
        <dc:title />
      </cc:Work>
    </rdf:RDF>
  </metadata>
  <defs
     id="defs6" />
  <sodipodi:namedview
     pagecolor="#ffffff"
     bordercolor="#666666"
     borderopacity="1"
     objecttolerance="10"
     gridtolerance="10"
     guidetolerance="10"
     inkscape:pageopacity="0"
     inkscape:pageshadow="2"
     inkscape:window-width="1848"
     inkscape:window-height="1056"
     id="namedview4"
     showgrid="false"
     inkscape:zoom="1.5563112"
     inkscape:cx="315.82698"
     inkscape:cy="408.6559"
     inkscape:window-x="72"
     inkscape:window-y="0"
     inkscape:window-maximized="1"
     inkscape:current-layer="svg2"
     showguides="true"
     inkscape:guide-bbox="true" />
  <image
     sodipodi:absref="/home/churchyard/Dokumenty/RedHat/torsava-copy/posters/1.jpg"
     xlink:href="1.jpg"
     style="fill:#ffffff;fill-opacity:1"
     y="0"
     x="0"
     id="image10"
     preserveAspectRatio="none"
     height="606.5625"
     width="468.75" />
  <g
     id="g4521"
     style="fill:#ffffff;fill-opacity:1"
     transform="matrix(0.91920185,0,0,1,-296.13188,-795.47073)">
    <path
       id="path4486"
       d="m 484.69531,811.23242 c -7.97112,0.1307 -16.26826,3.96991 -20.87109,10.24024 -5.11698,6.97071 -6.9036,11.2824 -7.39258,20.29101 -0.54078,4.31828 -0.56604,8.7499 -0.0996,13.04492 0.14096,6.05557 0.61865,8.25757 2.06641,11.70899 4.24085,10.11009 8.98266,14.87891 17.42968,17.52344 5.7996,1.81568 10.82881,1.53825 16.01758,-0.88086 7.41403,-3.45656 7.86334,-4.4621 4.69727,-10.51368 -1.46602,-2.80213 -3.03248,-5.09375 -3.48047,-5.09375 -0.448,0 -1.81997,0.65772 -3.04883,1.46289 -3.17274,2.07887 -9.53941,1.96326 -12.56055,-0.22851 -1.3655,-0.99065 -3.51435,-3.86262 -4.77539,-6.38086 -1.96122,-3.91645 -2.28967,-5.87523 -2.26757,-13.54492 0.021,-7.28313 0.43437,-9.90204 2.20117,-13.95117 3.9177,-8.97855 11.99773,-12.05278 19.0664,-7.25586 l 3.37305,2.28906 4.1543,-4.82227 c 2.28512,-2.65232 3.9778,-5.26403 3.75976,-5.80468 -0.61528,-1.52562 -7.01662,-5.72863 -10.55664,-6.93164 -2.43606,-0.82786 -5.05585,-1.19591 -7.71289,-1.15235 z"
       style="fill:#ffffff;fill-opacity:1"
       inkscape:connector-curvature="0" />
    <path
       sodipodi:nodetypes="cccsccccsscscscccscsccccccc"
       inkscape:connector-curvature="0"
       id="path4484"
       d="m 597.60938,812.06641 -0.0117,0.17382 -0.92383,0 -0.61524,18.98438 c -0.3383,10.4414 -0.61625,26.68359 -0.61718,36.09375 l -0.002,17.10937 13.35938,-0.0215 0,-18 c 15.04151,-0.0232 19.06308,-1.63307 23.83008,-6.66211 16.14538,-17.03289 12.89916,-36.33785 -5.42383,-45.68555 -0.864,-0.44077 -1.7065,-0.76848 -2.70313,-1.02539 0,0 -1.34428,-0.49114 -2.04684,-0.60084 -1.70833,-0.26672 -5.18558,-0.12572 -5.18558,-0.12572 -1.90535,-0.05 -4.22396,-0.0664 -7.11328,-0.0664 l -6.14063,0 z m 13.125,13.29882 3.7871,0 c 0.22237,0 0.42818,0.0199 0.64454,0.0273 8.60487,1.58476 13.05091,7.07541 12.94136,15.03711 -0.10868,7.8986 -9.12378,11.64608 -14.64666,12.46679 l -3.375,0.40625 -0.58399,0 0,12 0.002,-6.76171 c 0.002,-3.75775 0.27978,-8.10938 0.61718,-17.00391 z"
       style="fill:#ffffff;fill-opacity:1" />
    <path
       id="path4482"
       d="m 350.42773,812.13672 c -1.85285,-0.0443 -4.55528,0.0601 -6.92187,0.24023 -3.4582,-0.11859 -4.72126,-0.0561 -4.81641,0.70117 -0.0764,0.0424 -0.125,0.0859 -0.125,0.12891 0,0.53184 2.49943,12.87168 5.55469,27.42188 3.05525,14.55019 6.21752,29.97176 7.02734,34.27148 0.80981,4.29972 1.70964,8.20207 2,8.67188 0.35668,0.57712 3.60657,0.8501 6.77735,0.83007 0.12745,0.002 0.24703,0.009 0.375,0.01 2.13735,0.006 3.42111,0.23758 4.38476,-0.32422 0.8026,-0.13428 1.35908,-0.31075 1.49414,-0.5293 0.29509,-0.47746 2.13144,-8.66591 4.08204,-18.19726 l 2.99609,-14.63867 c 0.23226,-0.9809 0.45846,-1.92143 0.5957,-2.42774 l 2.64453,15.82422 c 2.08874,12.50161 2.71878,17.3394 4.35547,19.19531 l 0.0508,0.25782 0.19336,-0.008 c 1.21326,1.10102 2.97367,0.86328 6.11914,0.86328 l 6.50782,0 2.04492,-9.14062 c 1.12471,-5.02735 3.88494,-16.73438 6.13281,-26.01563 4.59278,-18.96317 7.91406,-33.99594 7.91406,-35.8164 0,-0.0641 -0.0312,-0.11928 -0.0508,-0.17774 0.003,-0.0227 0.0508,-0.23318 0.0508,-0.24218 0,-0.19242 -0.55356,-0.36591 -1.43554,-0.50391 -0.089,-0.0174 -0.1969,-0.0331 -0.29493,-0.0488 -0.0307,-0.004 -0.0585,-0.008 -0.0898,-0.0117 -0.58526,-0.0886 -1.38348,-0.14166 -2.29883,-0.17773 -0.63355,-0.0291 -1.29046,-0.0527 -1.99804,-0.0527 -1.52728,0 -2.67746,-0.0783 -3.61133,0 l -3.25,0 -3.82813,16.17188 c -2.10569,8.89453 -4.1684,17.85937 -4.58398,19.92187 -0.72955,3.62073 -0.81167,3.44299 -2.37305,-5.15625 -0.88942,-4.89844 -2.53068,-13.86328 -3.64844,-19.92187 l -2.0332,-11.01563 -0.95703,0 -5.27539,0 -5.41797,0 -0.81445,0 -3.41992,17.72071 c -0.8236,4.2674 -1.55447,8.20762 -2.14649,11.51172 -0.74613,3.61094 -1.47137,7.12066 -1.83398,8.71484 -0.69148,-1.79254 -2.04755,-7.90345 -4.21094,-18.89648 -2.01143,-10.22088 -3.66011,-18.68751 -3.66211,-18.81641 -0.004,-0.20038 -0.88365,-0.30632 -2.20313,-0.33789 z"
       style="fill:#ffffff;fill-opacity:1"
       inkscape:connector-curvature="0" />
    <path
       inkscape:connector-curvature="0"
       id="path4480"
       d="m 760.30273,812.15234 -5.23437,0.22852 c -0.62703,-10e-4 -1.27603,0.008 -1.94531,0.043 l -5.52735,0.28515 -0.82617,34.39258 c -0.45452,18.91628 -0.57311,35.05301 -0.26367,35.85938 0.4294,1.11901 1.98594,1.46679 6.57617,1.46679 l 6.01367,0 0.0449,-0.9375 0.17383,0 0.01,-3.875 0.22656,-4.79687 c 0.25045,-5.28516 0.52232,-21.54839 0.60352,-36.13867 l 0.14258,-25.37891 0.0195,-0.12305 -0.0195,0 0.006,-1.02539 z"
       style="fill:#ffffff;fill-opacity:1" />
    <path
       inkscape:connector-curvature="0"
       id="path4478"
       d="m 798.54102,812.24023 0.14453,1.51368 -0.004,1.06445 c -0.0116,3.77366 2.82929,42.3543 3.38672,45.99023 0.4258,2.77739 0.67483,3.05521 3.48242,2.84571 0.44471,0.075 0.90068,0.12986 1.32422,0.13281 0.70841,0.005 1.20297,0.0644 1.61523,-0.37109 l 0.98047,-0.082 2.97852,-22.96875 c 1.63873,-12.63281 3.00987,-24.12891 3.04687,-25.54687 l 0.0449,-1.72266 0.17187,-0.85547 -0.14844,0 -8.4375,0 -8.4375,0 -0.14843,0 z"
       style="fill:#ffffff;fill-opacity:1" />
    <path
       inkscape:connector-curvature="0"
       id="path4474"
       d="m 780.87695,830.89648 c -3.74584,0.19033 -7.50036,0.0475 -11.25,0.0918 -0.006,3.29713 -0.18898,6.5988 -0.48133,9.88103 0.10537,1.44599 -1.09434,1.48673 -2.15933,1.36897 -1.30728,0 -2.61456,0 -3.92184,0 0,4.0625 0,8.125 0,12.1875 2.03125,3.8e-4 4.0625,-2.9e-4 6.09375,-0.002 -0.13952,9.21949 -0.62375,18.44444 -0.23701,27.66266 -0.10633,2.78535 3.34885,2.08891 5.21083,2.32844 2.24821,0.0224 4.49669,0.006 6.74502,0.0109 0.0227,-8.4063 -0.0456,-16.81454 0.0347,-25.21961 0.39254,-1.4185 -0.43427,-4.27179 1.12951,-4.76605 1.89058,-0.16118 3.78118,-0.32212 5.67177,-0.48309 0.0652,-3.75 0.13025,-7.5 0.1953,-11.25 -0.63087,-0.21564 -0.58011,-0.89472 -1.64334,-0.49364 -1.48317,0.27651 -2.96682,0.0555 -4.45041,-0.0942 0.0382,-3.70932 -0.0829,-7.42234 0.0742,-11.12891 -0.27797,-0.0609 -0.90094,0.11818 -1.01178,-0.0937 z"
       style="fill:#ffffff;fill-opacity:1" />
    <path
       id="path4472"
       d="m 515.63672,841.32227 c -6.63148,-0.0422 -13.60042,4.95752 -16.77734,13 -4.2591,10.78196 1.73642,27.32723 10.89648,30.06835 4.17083,1.24812 7.60214,1.11186 11.34766,-0.45312 2.32919,-0.97319 3.72326,-1.12243 4.37695,-0.46875 0.20821,0.20821 0.771,0.38921 1.46289,0.54687 1.1082,0.34488 2.64538,0.4753 4.08398,0.41211 l 4.41211,0 0,-21.09375 0,-9.875 0.0684,-10.28125 -0.0684,0 0,-0.9375 -4.71679,0 c -3.23353,0 -4.8804,0.42326 -5.23438,1.34571 -0.42988,1.12027 -1.01386,1.04079 -3.48633,-0.4668 -1.98223,-1.20867 -4.15474,-1.7828 -6.36523,-1.79687 z m 1.98633,12.17382 c 0.40023,0.002 0.75121,0.0207 1.09765,0.043 3.42973,0.33757 4.52363,2.68685 4.5293,9.18164 -6.2e-4,0.55467 -0.005,1.06237 -0.0137,1.54102 -0.17045,1.87628 -0.41367,3.67724 -0.73047,5.03125 -0.32444,0.68348 -0.77574,1.23685 -1.42383,1.8457 -2.69236,2.52934 -5.31341,2.58891 -8.36133,0.19141 -2.87425,-2.26088 -3.85383,-6.59723 -2.56836,-11.3711 1.08468,-4.02815 3.8367,-6.40073 7.47071,-6.46289 z"
       style="fill:#ffffff;fill-opacity:1"
       inkscape:connector-curvature="0" />
    <path
       id="path4470"
       d="m 563.76367,841.4082 c -2.04587,0.0727 -4.09347,0.80664 -6.14844,2.20118 -3.35719,2.27827 -3.41187,2.28354 -4.4082,0.42187 -0.84628,-1.58128 -1.7926,-1.83956 -5.87305,-1.60352 l -4.86328,0.28125 -0.25195,20.90235 -0.25195,20.90234 4.25195,-0.18945 c 0.75553,0.0619 1.55854,0.10351 2.40039,0.10351 l 5.57031,0 0,-0.45898 0.21485,-0.01 -0.11719,-12.1875 c -0.13242,-13.77477 0.69889,-16.69174 4.90234,-17.17773 4.17609,-0.48282 5.08311,0.39364 5.26367,10.00781 0.028,1.66338 0.0485,3.43305 0.0488,5.75 10e-6,0.0323 0,0.0477 0,0.0801 0,0.0175 0,0.0293 0,0.0469 l 0,13.94921 6.09375,0 6.09375,0 0,-1.10546 0,-14.92579 c 0,-0.007 0,-0.0123 0,-0.0195 0,-0.21348 -0.004,-0.36919 -0.004,-0.57812 -10e-6,-0.004 0,-0.007 0,-0.0117 -0.004,-18.5942 -0.62912,-20.86186 -6.78516,-24.61523 -2.04805,-1.24873 -4.09085,-1.83639 -6.13672,-1.76368 z"
       style="fill:#ffffff;fill-opacity:1"
       inkscape:connector-curvature="0" />
    <path
       inkscape:connector-curvature="0"
       id="path4468"
       d="m 659.17138,841.67188 c -7.35373,0.30362 -15.63436,5.43244 -18.87891,12.13476 -1.07083,2.21206 -1.70252,5.20598 -1.88086,8.25391 -0.064,0.81122 -0.0783,1.62731 -0.043,2.44726 0.0619,2.68584 0.48423,5.26133 1.29883,7.21094 1.80146,4.3115 7.90465,10.22799 11.84571,11.48437 0.76936,0.24528 1.64895,0.43618 2.56445,0.59961 0.1364,0.0288 0.27929,0.0469 0.41797,0.0723 0.25582,0.0415 0.50147,0.0898 0.76367,0.125 0.25415,0.0342 0.51339,0.0584 0.77344,0.082 3.73324,0.40794 7.84894,0.21503 10.14062,-0.64453 8.70912,-3.26662 14.35742,-11.26061 14.35742,-20.31836 0,-6.21483 -1.5766,-10.02981 -6.01367,-14.55078 -4.11537,-4.19318 -7.22247,-5.8945 -12.26758,-6.7207 -0.99526,-0.16299 -2.02759,-0.21917 -3.07812,-0.17578 z m 0.0469,12.82031 c 7.52728,-0.0318 12.59549,8.79708 6.38477,15.00781 -0.59464,0.59464 -1.22293,1.08748 -1.87305,1.48828 -0.0363,0.0195 -0.071,0.0435 -0.10742,0.0625 -0.032,0.0191 -0.0656,0.0321 -0.0977,0.0508 -2.09327,1.06071 -4.45562,1.28962 -6.63281,0.78516 -2.49705,-0.79282 -4.72505,-2.80032 -6.01953,-5.89844 -1.17321,-2.80788 -1.15547,-3.57103 0.14453,-6.31055 0.81329,-1.71389 2.5338,-3.59651 3.82227,-4.18359 1.50654,-0.68642 2.98496,-0.99607 4.3789,-1.00195 z"
       style="fill:#ffffff;fill-opacity:1" />
    <path
       id="path4466"
       d="m 423.0625,842.09766 c -15.27744,-0.11834 -26.2651,16.31407 -19.8418,29.67382 2.39307,4.97731 3.4915,6.23052 8.47461,9.67969 2.85328,1.97495 4.40689,2.64899 7.40039,2.85742 0.6323,0.0759 1.28426,0.11914 1.98438,0.11914 0.22042,0 0.4504,-0.0261 0.67383,-0.0332 3.1787,0.0122 6.85706,-0.38769 8.19531,-0.89648 2.40005,-0.9125 6.36118,-3.83636 8.07617,-5.73243 l 0.95117,-0.83398 -0.17383,-0.22852 c 0.0379,-0.0892 0.053,-0.16596 0.0605,-0.23828 l 0.0684,-0.0547 -0.0703,-0.0684 c -0.0844,-0.60145 -1.42312,-2.31529 -3.06055,-3.90235 l -3.07422,-2.98047 -3.88672,1.92188 c -3.23416,1.60013 -4.46634,1.76236 -7.34765,0.9668 -3.22347,-0.89005 -6.98975,-3.42636 -6.99024,-4.70704 -1.2e-4,-0.30677 5.78341,-0.47229 12.85157,-0.36914 7.04985,0.10289 13.29387,-0.21101 13.91015,-0.69726 l 0.42578,-0.008 -0.01,-0.86524 c 0.59822,-2.71369 -0.7172,-10.31808 -2.50391,-13.14844 -4.50448,-7.13562 -9.54226,-10.40417 -16.11328,-10.45507 z m -1.89844,11.39257 c 2.44737,0 6.39863,2.3163 6.45703,3.76954 5e-4,0.0121 0.004,0.0252 0.004,0.0371 -0.003,0.0878 -0.1203,0.17184 -0.28906,0.25195 -0.77675,0.35199 -3.17139,0.6102 -6.03321,0.62305 -0.003,-2e-5 -0.006,10e-6 -0.01,0 -3.23506,-0.0175 -5.85352,-0.36246 -5.85352,-0.78711 0,-1.5411 3.45979,-3.89454 5.72461,-3.89454 z"
       style="fill:#ffffff;fill-opacity:1"
       inkscape:connector-curvature="0" />
    <path
       inkscape:connector-curvature="0"
       id="path4416"
       d="m 805.44922,867.59375 c -1.83835,0.11236 -3.68232,0.88544 -5.22656,2.42969 -3.30957,3.30957 -3.38337,8.45859 -0.17188,11.92383 3.30971,3.57124 8.15683,3.41738 11.95117,-0.37696 2.46765,-2.46766 2.78031,-3.3281 2.30274,-6.32812 -0.78771,-4.94848 -4.8111,-7.89564 -8.85547,-7.64844 z"
       style="fill:#ffffff;fill-opacity:1" />
    <path
       sodipodi:nodetypes="ssscccccscccssccs"
       inkscape:connector-curvature="0"
       id="path4494"
       d="m 702.96049,842.21138 c -2.04587,0.0727 -3.29029,0.003 -5.34526,1.398 -3.35719,2.27827 -3.41187,2.28354 -4.4082,0.42187 -0.84628,-1.58128 -1.7926,-1.83956 -5.87305,-1.60352 l -4.86328,0.28125 -0.25195,20.90235 -0.25195,20.90234 4.25195,-0.18945 c 0.75553,0.0619 1.55854,0.10351 2.40039,0.10351 l 5.57031,0 0,-0.45898 0.21485,-0.01 -0.11719,-12.1875 c -0.13242,-13.77477 0.69889,-16.69174 4.90234,-17.17773 1.06228,-0.12282 1.91072,-0.155 2.5918,0.0195 l 3.43024,-11.81695 c 0,0 -1.39339,-0.61543 -2.251,-0.58495 z"
       style="fill:#ffffff;fill-opacity:1" />
    <path
       inkscape:connector-curvature="0"
       id="path4503"
       d="m 724.87695,830.89648 c -3.74584,0.19033 -7.50036,0.0475 -11.25,0.0918 -0.006,3.29713 -0.18898,6.5988 -0.48133,9.88103 0.10537,1.44599 -1.09434,1.48673 -2.15933,1.36897 -1.30728,0 -2.61456,0 -3.92184,0 0,4.0625 0,8.125 0,12.1875 2.03125,3.8e-4 4.0625,-2.9e-4 6.09375,-0.002 -0.13952,9.21949 -0.62375,18.44444 -0.23701,27.66266 -0.10633,2.78535 3.34885,2.08891 5.21083,2.32844 2.24821,0.0224 4.49669,0.006 6.74502,0.0109 0.0227,-8.4063 -0.0456,-16.81454 0.0347,-25.21961 0.39254,-1.4185 -0.43427,-4.27179 1.12951,-4.76605 1.89058,-0.16118 3.78118,-0.32212 5.67177,-0.48309 0.0652,-3.75 0.13025,-7.5 0.1953,-11.25 -0.63087,-0.21564 -0.58011,-0.89472 -1.64334,-0.49364 -1.48317,0.27651 -2.96682,0.0555 -4.45041,-0.0942 0.0382,-3.70932 -0.0829,-7.42234 0.0742,-11.12891 -0.27797,-0.0609 -0.90094,0.11818 -1.01178,-0.0937 z"
       style="fill:#ffffff;fill-opacity:1" />
  </g>
  <image
     sodipodi:absref="/home/churchyard/Dokumenty/RedHat/torsava-copy/posters/1_headscarf.png"
     xlink:href="1_headscarf.png"
     width="468.75"
     height="606.5625"
     preserveAspectRatio="none"
     id="image4595"
     x="0"
     y="0" />
</svg>
